<svg width="1774" height="887" viewBox="0 0 1774 887" fill="none" xmlns="http://www.w3.org/2000/svg">
  <defs>
    <linearGradient id="folderGradient" x1="162" y1="218" x2="444" y2="704" gradientUnits="userSpaceOnUse">
      <stop offset="0" stop-color="#1E7BFF"/>
      <stop offset="1" stop-color="#7049FF"/>
    </linearGradient>
    <linearGradient id="aiGradient" x1="1470" y1="390" x2="1608" y2="509" gradientUnits="userSpaceOnUse">
      <stop offset="0" stop-color="#397BFF"/>
      <stop offset="1" stop-color="#7B48FF"/>
    </linearGradient>
    <linearGradient id="bluePurple" x1="425" y1="522" x2="670" y2="676" gradientUnits="userSpaceOnUse">
      <stop offset="0" stop-color="#2E7BFF"/>
      <stop offset="1" stop-color="#7049FF"/>
    </linearGradient>
    <linearGradient id="paperFill" x1="296" y1="260" x2="610" y2="715" gradientUnits="userSpaceOnUse">
      <stop offset="0" stop-color="#FFFFFF"/>
      <stop offset="1" stop-color="#F7F9FD"/>
    </linearGradient>
    <filter id="softShadow" x="120" y="190" width="570" height="570" filterUnits="userSpaceOnUse" color-interpolation-filters="sRGB">
      <feDropShadow dx="0" dy="14" stdDeviation="18" flood-color="#10284D" flood-opacity="0.13"/>
    </filter>
    <filter id="paperShadow" x="250" y="230" width="460" height="520" filterUnits="userSpaceOnUse" color-interpolation-filters="sRGB">
      <feDropShadow dx="0" dy="15" stdDeviation="17" flood-color="#10284D" flood-opacity="0.18"/>
    </filter>
  </defs>


  <g id="PaperflowAI-logo" filter="url(#softShadow)">
    <path d="M160 328C160 288 160 268 170 253C178 240 191 232 209 225C228 218 253 218 302 218H444V681H298C248 681 224 681 204 674C186 668 172 656 165 640C160 627 160 608 160 570V328Z" fill="url(#folderGradient)"/>
    <path d="M229 348C225 326 242 306 264 306H496C513 306 527 318 530 335L585 624C589 646 572 666 550 666H318C301 666 287 654 284 637L229 348Z" fill="#CFE0FF" opacity="0.78"/>
    <path d="M264 324C260 302 277 282 299 282H531C548 282 562 294 565 311L620 600C624 622 607 642 585 642H353C336 642 322 630 319 613L264 324Z" fill="#E9F0FF" opacity="0.82"/>
  </g>

  <g id="PaperflowAI-document" filter="url(#paperShadow)">
    <path d="M299 281C299 261 315 245 335 245H524L642 363V658C642 678 626 694 606 694H335C315 694 299 678 299 658V281Z" fill="url(#paperFill)"/>
    <path d="M524 245V329C524 348 539 363 558 363H642L524 245Z" fill="#EEF1F6"/>
    <path d="M524 245V329C524 348 539 363 558 363H642" stroke="#E1E5EC" stroke-width="1"/>
    <rect x="326" y="365" width="101" height="15" rx="7.5" fill="#2F7BFF"/>
    <rect x="326" y="425" width="194" height="13" rx="6.5" fill="#C6CBD3"/>
    <rect x="326" y="466" width="194" height="13" rx="6.5" fill="#C6CBD3"/>
    <rect x="326" y="507" width="194" height="13" rx="6.5" fill="#C6CBD3"/>
    <rect x="326" y="548" width="142" height="13" rx="6.5" fill="#C6CBD3"/>
    <path d="M578 501C587 538 606 558 644 568C607 577 587 597 578 634C569 597 549 577 512 568C549 558 569 538 578 501Z" fill="url(#bluePurple)"/>
    <rect x="466" y="619" width="76" height="16" rx="8" fill="url(#bluePurple)"/>
    <rect x="408" y="657" width="86" height="15" rx="7.5" fill="url(#bluePurple)"/>
    <rect x="508" y="657" width="29" height="15" rx="7.5" fill="#2F7BFF"/>
    <rect x="550" y="657" width="25" height="15" rx="7.5" fill="#2F7BFF"/>
  </g>

  <g id="PaperflowAI-wordmark">
    <text x="726" y="507" font-family="Inter, Avenir Next, Segoe UI, Helvetica, Arial, sans-serif" font-size="158" font-weight="700" letter-spacing="-5" fill="#061638">Paperflow</text>
    <text x="1469" y="507" font-family="Inter, Avenir Next, Segoe UI, Helvetica, Arial, sans-serif" font-size="158" font-weight="700" letter-spacing="-2" fill="url(#aiGradient)">AI</text>
  </g>
</svg>
